<?xml version="1.0" encoding="UTF-8" standalone="no"?>
<!-- Created with Inkscape (http://www.inkscape.org/) -->

<svg
   width="120"
   height="120"
   viewBox="0 0 120 120"
   version="1.1"
   id="svg1"
   xmlns="http://www.w3.org/2000/svg"
   xmlns:svg="http://www.w3.org/2000/svg">
  <defs
     id="defs1" />
  <g
     id="layer1">
    <circle
       style="fill:#00ffff;fill-opacity:1;stroke:none;stroke-width:9;stroke-dasharray:none;stroke-dashoffset:0;paint-order:markers fill stroke"
       id="path1"
       cx="60"
       cy="60"
       r="60" />
    <circle
       style="fill:#000000;fill-opacity:1;stroke:none;stroke-width:11.931;stroke-dasharray:none;stroke-dashoffset:0;stroke-opacity:1;paint-order:markers fill stroke"
       id="path2"
       r="53.884895"
       cy="60"
       cx="60"
       clip-path="none" />
  </g>
  <path
     d="m 58.450043,69.431136 q -1.576228,0.105082 -3.099914,0.05254 -1.471145,-0.05254 -2.994831,-0.157623 -1.681309,-0.105082 -3.415159,-0.157623 -1.681308,-0.05254 -3.572781,0.05254 0.105082,3.940568 -0.210163,7.933676 -0.262705,3.940568 -1.523687,7.145563 -0.315245,0.05254 -0.472868,-0.05254 -0.157622,-0.105082 -0.262704,-0.315246 -0.262705,-0.315245 -0.472868,-0.367786 -0.525409,-2.049095 -0.630491,-4.255813 -0.05254,-2.206718 -0.05254,-4.308354 0,-1.471145 -0.05254,-2.837208 0,-1.418605 -0.157623,-2.732127 -1.20844,-0.05254 -2.311799,0.157622 -1.103359,0.157623 -2.154177,0.420328 -0.367787,0.05254 -0.735573,0.157622 -0.315245,0.05254 -0.630491,0.105082 -1.366063,0.210164 -2.627045,0.05254 -1.260981,-0.157623 -2.36434,-1.471145 -0.525409,1.996554 -1.1559,3.835486 -0.630491,1.838931 -1.103359,2.416881 -0.262705,0.157623 0.105082,0.315245 0.210163,0.105082 0.367786,0.262705 0.157623,0.105082 0.05254,0.367786 -1.681309,0.420328 -3.888027,0.525409 -2.154177,0.105082 -4.203272,0.262705 -1.996554,0.105082 -3.310077,0.683032 0.05254,0.788113 0.367787,1.260981 0.315245,0.472868 0.367786,1.260982 -0.788114,-0.315246 -1.786391,-0.788114 -0.998277,-0.420327 -1.78639,-1.1559 -0.735573,-0.735572 -0.945736,-1.891472 -0.105082,-0.525409 -0.05254,-1.103359 0.105081,-0.630491 0.210163,-1.260982 0.05254,-0.525409 0.105082,-1.050818 0.105082,-0.525409 0.105082,-0.998277 0,-1.681309 -0.157623,-3.362617 -0.105082,-1.73385 -0.367786,-2.88975 -0.683032,-0.57795 -1.313523,-1.208441 -0.630491,-0.683031 -1.103359,-1.523686 0.420328,-0.105082 0.525409,-0.367786 0.157623,-0.315246 0.525409,-0.367786 1.050818,0.210163 2.101636,0.05254 1.050818,-0.210163 2.206718,-0.472868 0.945736,-0.210163 1.944014,-0.420327 0.998277,-0.210163 2.154177,-0.262704 0.157622,-0.998277 0.157622,-2.469423 0.05254,-1.523686 0.05254,-3.047372 -1.313522,0.57795 -3.152454,0.630491 -1.838931,0 -3.257536,0.472868 -0.262704,0.105082 -0.420327,0.210164 -0.157623,0.105081 -0.262704,0.210163 -0.210164,0.157623 -0.420328,0.262705 -0.210163,0.105081 -0.57795,0.05254 Q 11.951346,57.189103 11.00561,56.45353 10.059874,55.665417 9.27176,54.71968 8.5361874,53.721403 8.2734829,53.090912 9.2192191,52.93329 10.322578,52.93329 q 1.1559,-0.05254 2.364341,-0.105082 1.996554,-0.05254 4.150731,-0.157623 2.154177,-0.157622 4.045649,-0.683031 -0.105082,-1.523687 -0.367786,-2.942291 -0.210164,-1.418604 -0.683032,-2.574504 -0.998277,0.525409 -1.996554,0.472868 -0.945736,-0.05254 -1.891473,-0.157623 -0.157622,-0.05254 -0.210163,-0.05254 h -0.05254 q -0.893195,-0.157622 -1.73385,-0.210163 -0.840654,-0.05254 -1.523686,0.315245 -0.210164,-0.472868 0.472868,-0.998277 0.683032,-0.57795 1.260982,-0.840654 1.366063,-0.630491 3.099913,-1.313523 1.786391,-0.735572 3.572781,-1.576227 1.838932,-0.840654 3.310077,-1.891472 -0.315245,-0.210164 -0.630491,-0.420328 -0.315245,-0.210163 -0.57795,-0.472868 0.472868,-0.735572 1.471146,-0.945736 0.998277,-0.262704 2.101636,-0.157623 1.155899,0.105082 2.101636,0.472869 0.998277,0.367786 1.418604,0.788113 0.262704,0.210164 0.472868,0.893195 0.262705,0.683032 0.210164,0.945737 -0.105082,0.683031 -1.050818,1.155899 -0.945737,0.420328 -2.154177,0.735573 -1.208441,0.367786 -2.364341,0.735573 -1.1559,0.367786 -1.681309,1.050818 1.313523,1.418604 1.260982,3.099913 0,1.681309 -0.420327,3.730404 0.525409,0.315245 0.998277,0.157623 0.472868,-0.210164 0.945736,-0.525409 0.315245,-0.210164 0.630491,-0.367787 0.367786,-0.157622 0.735573,-0.210163 1.103358,-0.105082 2.154176,0.472868 1.103359,0.525409 1.996555,1.313522 0.945736,0.788114 1.523686,1.523686 -0.788114,0.57795 -2.101636,0.630491 -1.260982,0.05254 -2.574504,0.05254 -1.208441,-0.05254 -2.3118,0 -1.050818,0 -1.786391,0.420327 -0.262704,1.418605 -0.367786,2.732127 -0.05254,1.313523 -0.157623,2.784668 0.262705,0.105082 0.840655,0.157623 0.57795,0 1.103359,-0.157623 0.525409,-0.210164 0.63049,-0.735573 0.262705,0 0.472869,0.105082 0.262704,0.05254 0.472868,0.157623 0.315245,0.157623 0.683031,0.262704 0.420328,0.105082 1.103359,0 1.73385,0.683032 2.627045,1.418605 0.945737,0.683031 1.523687,2.259258 -0.210164,0.262705 -0.525409,0.472869 -0.315246,0.157622 -0.630491,0.315245 -0.630491,0.315245 -1.103359,0.735573 -0.472868,0.420327 -0.472868,1.418604 1.418604,-0.157623 3.257536,-0.367786 1.838931,-0.210164 3.782944,-0.367787 1.944014,-0.210163 3.625323,-0.210163 0.262704,-0.630491 0.210163,-1.366064 0,-0.735572 -0.105082,-1.471145 -0.05254,-0.57795 -0.105081,-1.103359 -0.05254,-0.57795 0,-1.1559 -0.367787,0.105082 -1.260982,0.262705 -0.840654,0.105082 -1.786391,0.315245 -0.945736,0.210164 -1.576227,0.683032 -1.366063,-0.630491 -2.679586,-1.366064 -1.260981,-0.788113 -2.154177,-1.944013 0.788114,0.05254 1.576227,0 0.788114,-0.05254 1.628768,-0.157623 0.840655,-0.157622 1.681309,-0.210163 0.840655,-0.105082 1.628768,0 -0.367786,-0.840655 -0.998277,-1.366064 -0.630491,-0.525409 -1.208441,-1.20844 0.262705,-1.523686 0.105082,-3.257536 -0.105082,-1.786391 -0.788113,-3.152454 -1.944014,-0.105082 -3.204995,-0.840655 -1.260982,-0.788113 -2.3118,-1.733849 1.313522,-0.788114 2.837209,-0.945737 1.576227,-0.157622 3.204995,-0.05254 0.367786,0 0.735572,0.05254 0.367787,0 0.683032,0.05254 1.260982,0.05254 2.469422,0.105082 1.260982,0.05254 2.469423,-0.105082 0.262704,-1.313522 0.262704,-2.679586 0,-1.366063 -0.420327,-2.469422 -0.788114,-0.683032 -1.73385,-1.208441 -0.945736,-0.525409 -1.576227,-1.366063 0.840655,-0.472868 2.101636,-0.735573 1.313523,-0.262704 2.574504,-0.157623 1.260982,0.105082 2.154177,0.735573 0.893196,0.630491 0.945737,1.996554 0.05254,0.788114 -0.262705,1.523686 -0.315245,0.735573 -0.683032,1.471146 -0.315245,0.57795 -0.57795,1.155899 -0.262704,0.57795 -0.367786,1.1559 1.208441,0.05254 2.627045,0 1.471145,-0.105081 2.732127,-0.367786 1.313523,-0.262704 2.049095,-0.735573 3.047372,1.050818 4.991386,3.152454 -0.893196,0.472869 -2.154177,0.630491 -1.208441,0.105082 -2.416882,0.105082 -0.57795,0.05254 -1.155899,0.105082 -0.525409,0 -0.998278,0.05254 0.105082,0.210163 0.262705,0.420327 0.157623,0.157623 0.315245,0.367786 0.735573,0.945737 1.260982,2.101636 0.57795,1.1559 -0.262705,2.784668 -0.315245,0.525409 -0.840654,0.735573 -0.472868,0.210163 -0.57795,0.735572 l 0.367786,0.210164 q -0.105081,0.262704 -0.210163,0.367786 -0.105082,0.105082 -0.157623,0.210164 -0.262704,0.210163 -0.157623,0.525409 0.998278,0.262704 2.3118,0.683032 1.313523,0.367786 2.3118,1.103359 1.050818,0.735572 1.050818,2.049095 -2.88975,-0.262705 -5.516795,-0.262705 -2.627045,-0.05254 -4.833763,-0.105082 0,0.57795 0,1.103359 0,0.525409 -0.05254,1.1559 -0.05254,0.630491 -0.105081,1.366064 0,0.735572 0,1.681308 0.577949,0.210164 1.366063,0.210164 0.840654,0 1.576227,0 0.57795,-0.05254 1.050818,-0.05254 0.472868,0 0.840654,0.05254 1.313523,-1.103359 2.784668,-0.683032 1.523686,0.420327 2.942291,1.103359 0.525409,0.210164 1.050818,0.472868 0.525409,0.210164 0.998277,0.367787 0.210163,0.262704 0.420327,0.735572 0.210164,0.472868 0.157623,0.893196 0,0.367786 -0.420327,0.420327 z M 26.032306,63.546555 q -2.101636,-0.367786 -3.835485,0 -1.681309,0.315245 -3.257536,0.788113 -0.262705,0.05254 -0.57795,0.157623 -0.262705,0.105082 -0.57795,0.157623 -0.315245,1.733849 -0.315245,3.152454 0.05254,1.366063 0.157622,2.837208 0.05254,0.893196 0.105082,1.838932 0.05254,0.945736 0.05254,2.101636 2.259259,-0.105082 4.045649,-0.262704 1.838932,-0.157623 3.677863,-0.840655 0.05254,-0.788113 0.157623,-1.628768 0.105082,-0.840654 0.262705,-1.681309 0.262704,-1.628768 0.367786,-3.310076 0.157623,-1.73385 -0.262705,-3.310077 z M 47.78424,49.045266 q -1.313523,-0.157623 -3.204995,0 -1.838932,0.157623 -3.677863,0.367786 -0.893196,0.105082 -1.73385,0.210164 -0.840655,0.105082 -1.576227,0.157623 1.1559,1.103359 1.996554,2.259258 0.840654,1.103359 1.1559,2.574505 0.367786,1.471145 -0.05254,3.782945 0.367786,0 0.735573,0 0.420327,-0.05254 0.840654,-0.05254 1.103359,-0.05254 2.3118,-0.105082 1.260981,-0.05254 2.154177,0 0.05254,-0.105082 0.105081,-0.262705 0.367787,-1.260981 0.788114,-2.889749 0.472868,-1.681309 0.57795,-3.257536 0.157622,-1.628768 -0.420327,-2.784668 z m 63.94228,18.704561 q -1.26099,0.945736 -3.09992,0.893195 -1.78639,-0.105082 -3.83548,-0.420327 -0.94574,-0.157623 -1.89148,-0.262704 -0.94573,-0.157623 -1.89147,-0.210164 -5.884578,-0.315245 -11.874241,0.157623 -5.989663,0.420327 -10.981049,0.945736 -2.732126,0.262704 -5.464253,0.788113 -2.679586,0.472868 -4.833763,1.996555 -0.472868,-0.105082 -1.050818,-0.105082 -0.525409,-0.05254 -1.1559,0 -1.313523,-0.945736 -2.627045,-2.206718 -1.260982,-1.313523 -2.154177,-2.259259 0.998277,-0.630491 1.996554,-0.367786 0.998277,0.210163 1.891473,0.57795 0.105081,0.05254 0.157622,0.05254 1.576227,-0.420328 3.362618,-0.57795 1.838932,-0.157623 3.572781,-0.420327 -0.157622,-0.57795 -0.157622,-1.523687 0,-0.945736 0.05254,-1.996554 0.05254,-0.57795 0.05254,-1.1559 0.05254,-0.63049 0.05254,-1.20844 0,-1.208441 -0.210163,-2.206718 -0.210164,-1.050818 -0.945737,-1.523686 0,-0.262705 0.105082,-0.262705 0.157623,-0.05254 0.315246,0 0.210163,0.05254 0.210163,-0.05254 0.210164,-2.627045 -0.630491,-3.888026 -0.840654,-1.260982 -2.049095,-2.364341 -0.262704,-0.315245 -0.57795,-0.57795 -0.262704,-0.315245 -0.577949,-0.630491 0.262704,-0.367786 0.577949,-0.420327 0.367787,-0.105082 0.420328,-0.315245 2.101636,-0.315246 4.991385,-0.840655 2.942291,-0.57795 5.516795,-0.735572 0.367786,-1.681309 0,-3.099914 -0.367786,-1.471145 -0.840655,-2.732126 -0.367786,-0.893196 -0.63049,-1.73385 -0.262705,-0.840655 -0.262705,-1.681309 1.313523,0.05254 1.996554,0.788114 0.683032,0.683031 1.260982,1.523686 0.630491,0.840654 1.576227,1.260981 0.630491,0.735573 0.683032,1.681309 0.05254,0.945736 0,1.786391 0,0.525409 0,0.998277 0,0.420327 0.105082,0.788113 1.523686,-0.105081 2.416881,-0.105081 0.893195,-0.05254 2.469422,-0.315246 0.105082,-3.204995 -0.367786,-5.884581 -0.420327,-2.679586 -0.840654,-4.255813 1.891472,0.420327 3.310076,1.73385 1.418605,1.313523 1.996555,3.362618 0.57795,2.049095 -0.05254,4.781222 1.681309,0.210163 3.310077,0.210163 1.681308,0 3.467699,-0.525409 1.52369,0.683032 3.205,1.208441 1.73385,0.472868 3.09991,1.313523 0.21016,0.840654 0.47287,1.628767 0.31524,0.788114 0.47287,1.681309 -0.68304,0.210164 -1.57623,0.315246 -0.8932,0.05254 -1.62877,0.262704 -0.73557,3.047373 -1.10336,6.304908 -0.36778,3.204995 -1.05082,6.672695 0.99828,0.367786 1.62877,0.157623 0.68303,-0.210164 1.20844,-0.735573 2.67959,0.315245 4.78122,1.260982 2.10164,0.945736 3.62533,2.469422 z M 96.437114,48.414775 q -0.630491,0.05254 -1.260982,0.05254 -0.577949,-0.05254 -1.103358,-0.05254 -0.630491,0 -1.208441,0 -0.57795,0 -1.1559,0.05254 -0.157623,1.838932 -0.210164,3.4677 0,1.576227 -0.157622,3.204995 0.735572,0.05254 1.366063,0.367786 0.630491,0.315245 0.683032,0.683032 0.945736,-0.05254 1.208441,0.420327 0.315245,0.472868 0.420327,0.840654 0.05254,0.05254 0.05254,0.105082 -0.945737,0.05254 -1.838932,0.210164 -0.893195,0.105081 -2.206718,0.210163 -0.210163,1.576227 -0.262704,2.627045 -0.05254,1.050818 -0.05254,2.049095 0,0.420328 -0.05254,0.945737 0,0.472868 0,0.998277 0.840654,0.105082 1.523686,0.105082 0.683032,-0.05254 1.366064,-0.105082 0.525409,0 1.103358,0 0.57795,-0.05254 1.260982,-0.05254 0.472868,-2.732127 0.683032,-5.201549 0.210163,-2.521964 0.157622,-5.149009 -0.05254,-2.679586 -0.315246,-5.779499 z m 8.406546,33.468554 q -0.52541,0.05254 -0.84066,0.525409 -0.31524,0.525409 -0.99827,0.735573 -0.68304,0.210164 -1.26098,-0.05254 -0.57795,-0.262704 -1.10336,-0.788113 -0.998281,-1.050818 -1.891476,-2.627046 -0.840655,-1.523686 -1.944014,-2.206717 0.05254,-0.157623 0.157623,-0.157623 0.157623,-0.05254 0.157623,-0.210164 -1.1559,-2.416881 -2.627045,-4.518517 -1.471146,-2.154177 -3.4677,-3.782945 0.788114,-0.367786 1.471145,-0.210164 0.735573,0.157623 1.418605,0.57795 1.103359,0.683032 2.206718,1.628768 1.155899,0.945736 2.627045,1.050818 0.367786,0.998277 1.20844,1.471145 0.840656,0.472869 1.681306,0.893196 1.36607,1.78639 2.0491,3.782945 0.68303,1.944013 1.1559,3.888025 z m -23.748489,-9.93023 q -0.105082,0.420327 -0.210164,0.893195 -0.105081,0.472868 -0.262704,0.893196 -0.262705,0.105081 -0.420327,0.315245 -0.157623,0.210164 -0.57795,0.210164 -1.681309,2.889749 -4.098191,4.938844 -2.36434,2.101636 -5.201549,3.888027 -0.367786,-0.683032 -1.208441,-1.050818 -0.788113,-0.367786 -1.050818,-1.103359 0.945737,-0.420327 2.3118,-1.418604 1.366064,-0.945736 2.627045,-2.154177 1.313523,-1.208441 2.049095,-2.3118 0.998277,-1.471145 0.788114,-2.469422 -0.157623,-1.050818 -1.208441,-2.259259 1.1559,-0.420327 1.996554,-0.367786 0.840655,0 1.838932,0.157622 0.367786,0.105082 0.788113,0.157623 0.472868,0.05254 0.998278,0.105082 -0.157623,1.313523 0.840654,1.576227 z m 6.882858,-23.380701 q -1.260982,0.105082 -2.469422,0.157623 -1.208441,0.05254 -2.627045,0.262704 -0.105082,1.366064 -0.105082,3.257536 0,1.838932 0.05254,3.415159 0.63049,0 1.20844,-0.05254 0.630491,-0.105082 1.208441,-0.210164 0.683032,-0.105082 1.260982,-0.210163 0.57795,-0.105082 1.103359,0 0.262704,-1.313523 0.315245,-2.3118 0.05254,-0.998277 0.05254,-2.206718 0,-0.472868 0,-0.998277 0,-0.525409 0,-1.103359 z m -0.525409,9.614985 q -1.366063,0.157623 -2.732127,0.262704 -1.366063,0.05254 -2.154177,0.157623 -0.05254,0.683032 -0.05254,1.1559 0,0.472868 0.05254,0.840654 0,0.57795 -0.05254,1.103359 0,0.525409 -0.210163,1.471146 0,0 -0.05254,-0.262705 0,-0.315245 -0.105082,-0.420327 -0.157623,0.367786 -0.157623,0.840654 0,0.472868 0,0.945736 0,0.262705 0,0.472869 0.05254,0.210163 0,0.367786 0.05254,0 0.210164,0 1.208441,-0.157623 2.416881,-0.210164 1.208441,-0.105082 2.627045,-0.05254 0.315246,-1.733849 0.315246,-3.467699 0,-1.73385 -0.105082,-3.204995 z m -7.670972,7.145562 q 0,-0.315245 0,-0.63049 0,-0.315246 0,-0.683032 0.05254,-1.260982 0,-2.679586 0,-1.418604 -0.420327,-2.679586 -1.050818,0.262705 -1.891472,0.472868 -0.788114,0.210164 -2.154177,0.315246 0.210163,0.840654 0.210163,1.996554 0,1.103359 0,2.154177 0,0.683031 0,1.313522 0,0.57795 0.05254,0.998277 1.103359,-0.105081 2.101636,-0.262704 1.050818,-0.157623 2.101636,-0.315246 z m -0.315245,-9.299739 q 0,-0.05254 0,-0.210164 0.05254,-0.735572 0.05254,-1.996554 0,-1.260982 -0.157623,-2.521963 -0.105082,-1.260982 -0.525409,-1.891473 -0.998277,0.367787 -2.101636,0.630491 -1.050818,0.262705 -1.786391,0.840655 0.262705,1.155899 0.210164,2.679586 -0.05254,1.523686 0.105082,2.732126 0.893195,-0.210163 1.996554,-0.210163 1.103359,0 2.206718,-0.05254 z"
     id="text1"
     style="font-size:52.5409px;font-family:'Yuji Mai';-inkscape-font-specification:'Yuji Mai, Normal';fill:#00ffff;stroke-width:1.03129"
     aria-label="辞典" />
</svg>
